<svg height="512pt" viewBox="0 0 512 512" width="512pt" xmlns="http://www.w3.org/2000/svg"><path d="m177.070312 457.441406c-1.859374-1.863281-4.441406-2.921875-7.070312-2.921875s-5.210938 1.058594-7.070312 2.921875c-1.859376 1.859375-2.929688 4.4375-2.929688 7.078125 0 2.628907 1.070312 5.199219 2.929688 7.070313 1.859374 1.859375 4.441406 2.921875 7.070312 2.921875s5.210938-1.0625 7.070312-2.921875c1.859376-1.871094 2.929688-4.441406 2.929688-7.070313 0-2.640625-1.070312-5.21875-2.929688-7.078125zm0 0"/><path d="m205.082031 32.585938h-64.039062c-5.523438 0-10 4.476562-10 10 0 5.519531 4.476562 10 10 10h64.039062c5.523438 0 10-4.480469 10-10 0-5.523438-4.476562-10-10-10zm0 0"/><path d="m465.539062 326.5625-46.226562-16.664062c10.964844-11.789063 17.6875-27.570313 17.6875-44.898438v-24c0-36.394531-29.605469-66-66-66-11.199219 0-21.75 2.8125-31 7.753906v-152.753906c0-16.542969-13.457031-30-30-30h-280c-16.542969 0-30 13.457031-30 30v183.167969c0 5.523437 4.476562 10 10 10s10-4.476563 10-10v-128.492188h300v114.480469c-9.367188 11.398438-15 25.972656-15 41.84375v24c0 17.269531 6.675781 33.003906 17.570312 44.777344l-46.222656 16.746094c-27.722656 10.046874-46.347656 36.609374-46.347656 66.09375v24.410156h-210v-113.859375c0-5.523438-4.476562-10-10-10s-10 4.476562-10 10v178.832031c0 16.542969 13.457031 30 30 30h472c5.523438 0 10-4.476562 10-10v-109.308594c0-29.539062-18.671875-56.113281-46.460938-66.128906zm-48.539062-85.5625v24c0 25.363281-20.636719 46-46 46s-46-20.636719-46-46v-24c0-25.363281 20.636719-46 46-46s46 20.636719 46 46zm-397-176.324219v-34.675781c0-5.515625 4.484375-10 10-10h280c5.515625 0 10 4.484375 10 10v34.675781zm0 417.324219v-44.972656h210v54.972656h-200c-5.515625 0-10-4.484375-10-10zm472 10h-28v-78c0-5.523438-4.476562-10-10-10s-10 4.476562-10 10v78h-146v-78c0-5.523438-4.476562-10-10-10s-10 4.476562-10 10v78h-28v-99.382812c0-21.097657 13.328125-40.101563 33.160156-47.289063l54.996094-19.925781c1.074219-.390625 2.03125-.949219 2.875-1.628906 9 4.609374 19.179688 7.226562 29.96875 7.226562 10.664062 0 20.734375-2.558594 29.660156-7.066406.800782.613281 1.703125 1.113281 2.699219 1.472656l55.398437 19.972656c19.882813 7.164063 33.242188 26.179688 33.242188 47.3125zm0 0"/><path d="m165.335938 293.171875 60.796874 36.40625c1.582032.949219 3.355469 1.421875 5.136719 1.421875 1.699219 0 3.402344-.433594 4.929688-1.300781 3.136719-1.773438 5.070312-5.097657 5.070312-8.699219v-27.828125h10.730469c16.542969 0 30-13.457031 30-30v-112c0-16.542969-13.457031-30-30-30h-164c-16.542969 0-30 13.457031-30 30v112c0 16.542969 13.457031 30 30 30zm-87.335938-30v-112c0-5.515625 4.484375-10 10-10h164c5.515625 0 10 4.484375 10 10v112c0 5.515625-4.484375 10-10 10h-20.730469c-5.523437 0-10 4.476563-10 10v20.183594l-48.03125-28.761719c-1.554687-.929688-3.328125-1.421875-5.136719-1.421875h-80.101562c-5.515625 0-10-4.484375-10-10zm0 0"/><path d="m129.058594 217.171875c2.632812 0 5.210937-1.070313 7.070312-2.933594 1.871094-1.859375 2.929688-4.4375 2.929688-7.066406 0-2.632813-1.058594-5.210937-2.929688-7.070313-1.859375-1.863281-4.429687-2.929687-7.070312-2.929687-2.628906 0-5.207032 1.066406-7.070313 2.929687-1.859375 1.859376-2.929687 4.4375-2.929687 7.070313 0 2.636719 1.070312 5.207031 2.929687 7.066406 1.863281 1.863281 4.441407 2.933594 7.070313 2.933594zm0 0"/><path d="m173.058594 217.171875c2.632812 0 5.210937-1.070313 7.070312-2.933594 1.871094-1.859375 2.929688-4.4375 2.929688-7.066406 0-2.632813-1.058594-5.210937-2.929688-7.070313-1.859375-1.863281-4.429687-2.929687-7.070312-2.929687-2.628906 0-5.207032 1.066406-7.070313 2.929687-1.859375 1.859376-2.929687 4.4375-2.929687 7.070313 0 2.628906 1.070312 5.207031 2.929687 7.066406 1.863281 1.863281 4.441407 2.933594 7.070313 2.933594zm0 0"/><path d="m217.058594 217.171875c2.632812 0 5.210937-1.070313 7.070312-2.933594 1.871094-1.859375 2.929688-4.4375 2.929688-7.066406 0-2.632813-1.058594-5.210937-2.929688-7.070313-1.859375-1.863281-4.4375-2.929687-7.070312-2.929687-2.628906 0-5.207032 1.066406-7.070313 2.929687-1.859375 1.859376-2.929687 4.4375-2.929687 7.070313 0 2.628906 1.070312 5.207031 2.929687 7.066406 1.871094 1.863281 4.441407 2.933594 7.070313 2.933594zm0 0"/><path d="m10 266.128906c2.628906 0 5.210938-1.070312 7.070312-2.929687 1.859376-1.859375 2.929688-4.4375 2.929688-7.070313 0-2.640625-1.070312-5.207031-2.929688-7.070312-1.859374-1.867188-4.441406-2.929688-7.070312-2.929688s-5.210938 1.0625-7.070312 2.929688c-1.859376 1.863281-2.929688 4.429687-2.929688 7.070312 0 2.632813 1.070312 5.210938 2.929688 7.070313 1.859374 1.859375 4.441406 2.929687 7.070312 2.929687zm0 0"/></svg>